# xmcd CD database file
#
# Track frame offsets:
#	150
#	31131
#	65758
#	86473
#	115579
#	145822
#	167866
#	213069
#	228742
#
# Disc length: 3399 seconds
#
# Revision: 4
# Processed by: cddbd v1.5PL3 Copyright (c) Steve Scherf et al.
# Submitted via: CDex 1.51
#
DISCID=740d4509
DTITLE=Richard Hallebeek - Richard Hallebeek Project
DYEAR=2004
DGENRE=Jazz
TTITLE0=Prescription Strength
TTITLE1=Lined Out
TTITLE2=Canoga Park
TTITLE3=Good Food
TTITLE4=Free
TTITLE5=Axe
TTITLE6=Enigma
TTITLE7=Orange Faces Everywhere
TTITLE8=Imagine
EXTD=YEAR: 2004
EXTT0=
EXTT1=
EXTT2=
EXTT3=
EXTT4=
EXTT5=
EXTT6=
EXTT7=
EXTT8=
PLAYORDER=
